HIERARCHY
ROOT Hips
{
    OFFSET 0.000000 0.000000 0.000000
    CHANNELS 6 Xposition Yposition Zposition Zrotation Xrotation Yrotation
    JOINT Spine
    {
        OFFSET -0.000000 0.084000 0.000000
        CHANNELS 3 Zrotation Xrotation Yrotation
        JOINT Spine1
        {
            OFFSET -0.000000 0.216247 0.000000
            CHANNELS 3 Zrotation Xrotation Yrotation
            JOINT Neck
            {
                OFFSET -0.000000 0.215359 0.019578
                CHANNELS 3 Zrotation Xrotation Yrotation
                JOINT Head
                {
                    OFFSET -0.000000 0.143414 -0.020488
                    CHANNELS 3 Zrotation Xrotation Yrotation
                    End Site
                    {
                        OFFSET -0.000000 0.204877 0.000000
                    }
                }
            }
            JOINT LeftShoulder
            {
                OFFSET 0.040109 0.191272 -0.003631
                CHANNELS 3 Zrotation Xrotation Yrotation
                JOINT LeftArm
                {
                    OFFSET 0.138349 0.000000 0.000000
                    CHANNELS 3 Zrotation Xrotation Yrotation
                    JOINT LeftForeArm
                    {
                        OFFSET 0.335349 0.000000 0.000000
                        CHANNELS 3 Zrotation Xrotation Yrotation
                        JOINT LeftHand
                        {
                            OFFSET 0.276368 0.000000 0.000000
                            CHANNELS 3 Zrotation Xrotation Yrotation
                            End Site
                            {
                                OFFSET 0.153658 0.000000 0.000000
                            }
                        }
                    }
                }
            }
            JOINT RightShoulder
            {
                OFFSET -0.041533 0.191272 -0.003631
                CHANNELS 3 Zrotation Xrotation Yrotation
                JOINT RightArm
                {
                    OFFSET -0.138349 0.000000 0.000000
                    CHANNELS 3 Zrotation Xrotation Yrotation
                    JOINT RightForeArm
                    {
                        OFFSET -0.335349 0.000000 0.000000
                        CHANNELS 3 Zrotation Xrotation Yrotation
                        JOINT RightHand
                        {
                            OFFSET -0.276368 0.000000 0.000000
                            CHANNELS 3 Zrotation Xrotation Yrotation
                            End Site
                            {
                                OFFSET -0.153658 0.000000 0.000000
                            }
                        }
                    }
                }
            }
        }
    }
    JOINT LeftUpLeg
    {
        OFFSET 0.102438 0.000000 0.000000
        CHANNELS 3 Zrotation Xrotation Yrotation
        JOINT LeftLeg
        {
            OFFSET -0.000000 -0.442852 0.000000
            CHANNELS 3 Zrotation Xrotation Yrotation
            JOINT LeftFoot
            {
                OFFSET -0.000000 -0.461647 0.000000
                CHANNELS 3 Zrotation Xrotation Yrotation
                JOINT LeftToeBase
                {
                    OFFSET -0.000000 -0.066585 0.153658
                    CHANNELS 3 Zrotation Xrotation Yrotation
                    End Site
                    {
                        OFFSET -0.000000 0.000000 0.040975
                    }
                }
            }
        }
    }
    JOINT RightUpLeg
    {
        OFFSET -0.102438 0.000000 0.000000
        CHANNELS 3 Zrotation Xrotation Yrotation
        JOINT RightLeg
        {
            OFFSET -0.000000 -0.442852 0.000000
            CHANNELS 3 Zrotation Xrotation Yrotation
            JOINT RightFoot
            {
                OFFSET -0.000000 -0.461647 0.000000
                CHANNELS 3 Zrotation Xrotation Yrotation
                JOINT RightToeBase
                {
                    OFFSET -0.000000 -0.066585 0.153658
                    CHANNELS 3 Zrotation Xrotation Yrotation
                    End Site
                    {
                        OFFSET -0.000000 0.000000 0.040975
                    }
                }
            }
        }
    }
}
MOTION
Frames:    9
Frame Time:    0.010000
-0.537486    0.422342    0.218803    -3.231954    -14.469539    -5.450133    -1.323702    9.490568    -1.597983    4.980195    -3.499645    -0.417590    -5.936386    21.073402    1.865382    -2.578392    -4.338572    1.203645    13.289186    0.362650    2.566168    -10.338927    -3.551135    -1.622135    -2.569467    -6.686374    5.771740    9.019726    -6.517205    0.516741    -14.016286    -4.339736    11.642530    13.375115    -13.491619    -2.317990    -1.535798    -4.876152    -5.047646    -28.996771    -7.097382    8.359822    67.556648    -77.530403    56.217503    -46.038727    70.995621    36.150185    -9.149593    16.067913    3.524938    0.000000    0.000000    0.000000    34.393131    -84.276825    32.334042    6.661636    77.081802    -19.049704    -7.616200    19.060463    5.651736    0.000000    0.000000    0.000000    
-0.537485    0.422350    0.218811    -3.238524    -14.474659    -5.450978    -1.314072    9.485965    -1.593333    4.966481    -3.492357    -0.416457    -5.924155    21.088276    1.860168    -2.558970    -4.331979    1.201583    13.299397    0.371435    2.566523    -10.337307    -3.629480    -1.596770    -2.591600    -6.657647    5.793761    8.910689    -6.492408    0.451502    -14.006074    -4.339167    11.638431    13.392742    -13.454753    -2.327745    -1.558562    -4.903439    -5.015019    -29.006403    -7.123422    8.350420    67.547394    -77.525253    56.200653    -46.051399    70.994980    36.157265    -9.173575    16.066790    3.517877    0.000000    0.000000    0.000000    34.368195    -84.272789    32.282360    6.572158    77.085350    -18.957838    -7.623774    19.065958    5.652507    0.000000    0.000000    0.000000    
-0.537484    0.422356    0.218815    -3.244441    -14.479432    -5.451462    -1.309459    9.478844    -1.588838    4.960640    -3.480894    -0.415417    -5.914049    21.102421    1.855432    -2.541891    -4.326922    1.199506    13.306124    0.379277    2.566886    -10.336543    -3.712231    -1.569763    -2.616046    -6.635739    5.807432    8.835670    -6.473303    0.398636    -13.999226    -4.338423    11.635156    13.409180    -13.422431    -2.337037    -1.579855    -4.925754    -4.983001    -29.015198    -7.144526    8.341517    67.537521    -77.520935    56.184555    -46.061478    70.994652    36.162983    -9.188433    16.064579    3.512115    0.000000    0.000000    0.000000    34.343132    -84.269226    32.232105    6.485317    77.088577    -18.868334    -7.628671    19.070982    5.653149    0.000000    0.000000    0.000000    
-0.537484    0.422360    0.218818    -3.249775    -14.483718    -5.451792    -1.306572    9.469125    -1.584037    4.956222    -3.465711    -0.414507    -5.902387    21.118048    1.850988    -2.527301    -4.326836    1.197164    13.312691    0.387392    2.566538    -10.336700    -3.801817    -1.541202    -2.643535    -6.623584    5.807800    8.815313    -6.462214    0.367555    -13.992892    -4.336714    11.630570    13.424795    -13.396580    -2.344062    -1.598500    -4.940300    -4.952025    -29.024332    -7.158081    8.333735    67.528305    -77.517357    56.170586    -46.068542    70.994232    36.166584    -9.194248    16.063066    3.509320    0.000000    0.000000    0.000000    34.322773    -84.266121    32.187180    6.397412    77.091843    -18.777008    -7.631198    19.075764    5.653297    0.000000    0.000000    0.000000    
-0.537487    0.422361    0.218821    -3.254745    -14.488250    -5.452004    -1.304085    9.457292    -1.579171    4.951645    -3.446956    -0.413728    -5.891696    21.135683    1.847063    -2.511222    -4.332289    1.195302    13.318866    0.396470    2.566610    -10.338291    -3.889101    -1.515216    -2.672201    -6.627423    5.799004    8.852631    -6.465443    0.357833    -13.986850    -4.334267    11.625182    13.439302    -13.378959    -2.349275    -1.613028    -4.947149    -4.922773    -29.036501    -7.164766    8.328795    67.517883    -77.514030    56.156113    -46.075352    70.993820    36.169769    -9.197618    16.062685    3.510624    0.000000    0.000000    0.000000    34.304329    -84.262726    32.141331    6.294844    77.095680    -18.669867    -7.633198    19.080906    5.652607    0.000000    0.000000    0.000000    
-0.537491    0.422363    0.218825    -3.259567    -14.493710    -5.452098    -1.303255    9.444143    -1.574356    4.949935    -3.424935    -0.413108    -5.883865    21.154751    1.843790    -2.493832    -4.341830    1.194085    13.322295    0.406204    2.567397    -10.342976    -3.953782    -1.496461    -2.696610    -6.652514    5.792770    8.925412    -6.488977    0.360909    -13.982313    -4.332228    11.620924    13.452063    -13.369002    -2.354548    -1.623415    -4.948968    -4.895852    -29.051273    -7.167533    8.327780    67.503723    -77.510559    56.138145    -46.082115    70.993431    36.173691    -9.204652    16.063696    3.515292    0.000000    0.000000    0.000000    34.284966    -84.258842    32.090706    6.173243    77.100655    -18.542706    -7.634706    19.086023    5.651467    0.000000    0.000000    0.000000    
-0.537497    0.422365    0.218828    -3.264339    -14.499779    -5.452370    -1.302886    9.430340    -1.569455    4.948833    -3.401362    -0.412381    -5.876398    21.175175    1.840418    -2.477295    -4.353580    1.192521    13.324515    0.417942    2.568792    -10.351166    -3.994887    -1.485708    -2.714719    -6.687881    5.794768    8.998039    -6.522505    0.369591    -13.978132    -4.330927    11.617369    13.464933    -13.361223    -2.359405    -1.632976    -4.950066    -4.871878    -29.064785    -7.170108    8.329229    67.486710    -77.506889    56.117104    -46.089016    70.992653    36.178833    -9.214079    16.065834    3.522120    0.000000    0.000000    0.000000    34.267467    -84.254128    32.041801    6.048243    77.105606    -18.412098    -7.635669    19.091101    5.650574    0.000000    0.000000    0.000000    
-0.537503    0.422367    0.218831    -3.268640    -14.505574    -5.452477    -1.305546    9.414535    -1.564738    4.952811    -3.375468    -0.411920    -5.872897    21.195398    1.836552    -2.460390    -4.364718    1.190281    13.323573    0.430803    2.571588    -10.361511    -4.027968    -1.478890    -2.729848    -6.719901    5.800728    9.054465    -6.552540    0.381141    -13.976025    -4.330737    11.614846    13.477478    -13.355255    -2.362841    -1.641733    -4.951477    -4.852095    -29.078203    -7.173465    8.332476    67.468857    -77.503593    56.095200    -46.095055    70.991524    36.183369    -9.220477    16.067606    3.526843    0.000000    0.000000    0.000000    34.250866    -84.249260    31.999409    5.943687    77.109650    -18.303816    -7.635723    19.095488    5.651012    0.000000    0.000000    0.000000    
-0.537508    0.422368    0.218833    -3.271924    -14.511167    -5.451757    -1.314099    9.396313    -1.561010    4.966918    -3.346070    -0.411664    -5.877890    21.212702    1.832437    -2.440861    -4.372234    1.188153    13.316774    0.441899    2.576229    -10.373340    -4.059752    -1.473635    -2.743791    -6.745552    5.807942    9.095705    -6.576015    0.396000    -13.978055    -4.332418    11.613887    13.487487    -13.355109    -2.365063    -1.647168    -4.951168    -4.836750    -29.095364    -7.176021    8.338378    67.448441    -77.501381    56.071804    -46.098976    70.990921    36.185726    -9.223288    16.067511    3.528271    0.000000    0.000000    0.000000    34.229294    -84.244728    31.959980    5.868706    77.112762    -18.227650    -7.636104    19.098766    5.653042    0.000000    0.000000    0.000000    
